<svg width="16" height="16" viewBox="0 0 16 16" fill="none" xmlns="http://www.w3.org/2000/svg">
<g id="fi-rr-angle-small-left">
<path id="Vector" d="M8.4733 8.93347C8.41132 8.99595 8.33759 9.04555 8.25635 9.07939C8.17511 9.11324 8.08797 9.13067 7.99996 9.13067C7.91196 9.13067 7.82482 9.11324 7.74358 9.07939C7.66234 9.04555 7.58861 8.99595 7.52663 8.93347L4.47329 5.87347C4.41132 5.81098 4.33758 5.76138 4.25634 5.72754C4.1751 5.69369 4.08797 5.67627 3.99996 5.67627C3.91195 5.67627 3.82481 5.69369 3.74357 5.72754C3.66234 5.76138 3.5886 5.81098 3.52663 5.87347C3.40246 5.99837 3.33276 6.16734 3.33276 6.34347C3.33276 6.51959 3.40246 6.68856 3.52663 6.81347L6.58663 9.87347C6.96163 10.248 7.46996 10.4584 7.99996 10.4584C8.52997 10.4584 9.0383 10.248 9.4133 9.87347L12.4733 6.81347C12.5965 6.68929 12.6659 6.52169 12.6666 6.3468C12.6671 6.25906 12.6503 6.17209 12.6172 6.09086C12.584 6.00964 12.5351 5.93576 12.4733 5.87347C12.4113 5.81098 12.3376 5.76138 12.2564 5.72754C12.1751 5.69369 12.088 5.67627 12 5.67627C11.912 5.67627 11.8248 5.69369 11.7436 5.72754C11.6623 5.76138 11.5886 5.81098 11.5266 5.87347L8.4733 8.93347Z" fill="#FD9222"/>
</g>
</svg>
