<svg width="17" height="17" viewBox="0 0 17 17" fill="none" xmlns="http://www.w3.org/2000/svg">
<g id="phone" clip-path="url(#clip0_450_578)">
<path id="Vector" d="M15.5833 11.985V14.11C15.5841 14.3073 15.5437 14.5026 15.4646 14.6833C15.3856 14.8641 15.2697 15.0263 15.1243 15.1597C14.979 15.293 14.8073 15.3946 14.6205 15.4578C14.4336 15.521 14.2356 15.5445 14.0391 15.5267C11.8594 15.2899 9.76572 14.545 7.92618 13.3521C6.21473 12.2646 4.76371 10.8136 3.67618 9.10211C2.47908 7.25421 1.7341 5.15032 1.5016 2.96086C1.4839 2.76498 1.50718 2.56757 1.56995 2.38118C1.63273 2.19479 1.73363 2.02352 1.86622 1.87826C1.99882 1.733 2.16021 1.61695 2.34012 1.53748C2.52002 1.45801 2.71451 1.41688 2.91118 1.41669H5.03618C5.37994 1.41331 5.7132 1.53504 5.97385 1.7592C6.23449 1.98335 6.40474 2.29464 6.45285 2.63503C6.54254 3.31507 6.70888 3.98279 6.94868 4.62544C7.04398 4.87897 7.06461 5.15451 7.00812 5.4194C6.95162 5.68429 6.82038 5.92744 6.62993 6.12003L5.73035 7.01961C6.7387 8.79296 8.207 10.2613 9.98035 11.2696L10.8799 10.37C11.0725 10.1796 11.3157 10.0483 11.5806 9.99184C11.8455 9.93535 12.121 9.95598 12.3745 10.0513C13.0172 10.2911 13.6849 10.4574 14.3649 10.5471C14.709 10.5957 15.0233 10.769 15.2479 11.0341C15.4725 11.2992 15.5919 11.6376 15.5833 11.985Z" stroke="#404040" stroke-width="1.5" stroke-linecap="round" stroke-linejoin="round"/>
</g>
<defs>
<clipPath id="clip0_450_578">
<rect width="17" height="17" fill="white"/>
</clipPath>
</defs>
</svg>
